<?xml version="1.0" encoding="utf-8"?>
<!-- Generator: Adobe Illustrator 18.1.0, SVG Export Plug-In . SVG Version: 6.00 Build 0)  -->
<svg version="1.1" id="Layer_1" xmlns="http://www.w3.org/2000/svg" xmlns:xlink="http://www.w3.org/1999/xlink" x="0px" y="0px"
	 viewBox="0 0 1101.2 109.1" enable-background="new 0 0 1101.2 109.1" xml:space="preserve">
<g>
	<path fill="#067089" d="M952.8,82l3.9,0l-27.2-61l-9-9l27.5,61.7C949.3,76.6,950.9,79.3,952.8,82z"/>
	<path fill="#067089" d="M760,66V24.7c2,0.3,3.3,0.6,4.5,1c-0.8-2.4-2.3-4.4-3.9-5.9c-2.2-2-5.6-3.4-9.6-4.1V57h-2.3l9,9H760z"/>
	<path fill="#067089" d="M661.4,66c0-2,1.9-6.7,6.7-13.2c2.8-3.8,6.9-9.1,10.9-14.8V22h-1.2c-1.2,1-2.8,2.7-4.9,5.2
		c-5.7,6.8-10.2,12.5-13.3,16.8c-4.8,6.6-7.2,11-7.2,13H649l9,9H661.4z"/>
	<path fill="#067089" d="M980.6,82.2l2.1-1.5l1.8,2.2c0-0.1-0.5-0.3-0.5-0.4V60.1l-9-20.9v34.4c0,3.2,1.2,6.1,2.7,8.7L980.6,82.2z"
		/>
	<polygon fill="#067089" points="1003,12 1015.4,36.8 1017.1,31.2 1012,21 1002,10.7 1002.1,11 	"/>
	<path fill="#067089" d="M730.1,80.9c-0.4-1.7-1.1-3.4-1.1-5.3V29c0-0.7-0.7-0.9-1.3-1.6c-2.1-2.5-3.3-4.4-4.5-5.4H720v44.7
		c0,5.4,1.9,10.2,5,14.3L730.1,80.9z"/>
	<path fill="#067089" d="M967.8,26.6c-1.1-2.6-2.9-4.8-5.4-6.8c-4-3.1-9.4-4.7-14.4-4.7l9,9C960.6,24.1,964.5,24.9,967.8,26.6z"/>
	<polygon fill="#067089" points="1027.1,80.6 1033,64.3 1033,32.3 1013.5,82.9 	"/>
	<polygon fill="#067089" points="1091,90.7 1091,95 1017,95 1011.8,90 1009.9,95 999.6,95 1008.6,104 1018.9,104 1020.8,99 
		1026,104 1100,104 1100,99.7 	"/>
	<polygon fill="#067089" points="992,95 961.8,95 948,95 851.8,95 838,95 745.2,95 656,95 665,104 754.2,104 847,104 860.8,104 
		957,104 970.8,104 1001,104 1001,99.7 992,91 	"/>
	<polygon fill="#067089" points="815,42.1 813.8,42.1 815,34.3 815,29 817,29 817.9,22.7 826.4,31.5 857.3,56 860,56 860,21 851,12 
		851,47 848.3,47 814,20 806,20 806,49.5 815,42.1 	"/>
	<path fill="#067089" d="M1100.8,22l-9-9h-0.8v2.1c-5,0-9.9,1.6-13.9,4.7c-4.3,3.3-6.1,7.5-6.1,12.5v41.3c0,3.8,1,7,3.3,9.8l5.7-2.1
		v-40c0-5,1.8-9.2,6.1-12.5c4-3.1,8.9-4.7,13.9-4.7V22H1100.8z"/>
	<polygon fill="#067089" points="892.9,51.2 886.2,36.7 876.8,61 889.3,61 	"/>
	<path fill="#067089" d="M857.3,66l-6.3,3.4v11.5l7.2,0.1c0.5-0.8,0.8-1.5,1.3-2.4c0.3-0.5,0.6-1,0.6-1.5v-0.4l-5.5-1.5l3.8-9.2
		H857.3z"/>
	<polygon fill="#067089" points="815,61.9 827.6,72.2 836,65.3 836,41.3 827,32.3 827,70.1 806,52.9 806,80.4 815,80.5 	"/>
	<path fill="#067089" d="M881.5,81.2c0.1-0.8,0.2-1,0.4-1.6c0.3-1.1,0.8-1.6,1.4-2.6h19.5c0-1,0.1-1.4,0.1-1.8c0-0.5,0-1.1-0.1-1.3
		c-0.1-1.2-0.5-2-1.1-3.3c-0.1-0.1-0.3-0.6-0.6-0.6h-15.2l0.8-2h-12.4c-0.6,1-1.1,1.5-1.4,2.6c-0.3,1.1-0.4,1.9-0.4,3.2
		c0,2.9,0.8,5.3,2.5,7.5L881.5,81.2z"/>
	<path fill="#067089" d="M29,26.4c-1-2.5-2.6-4.7-5.1-6.6c-4-3.1-8.9-4.7-13.9-4.7l9,9C22.5,24.1,25.9,24.9,29,26.4z"/>
	<path fill="#067089" d="M79,29h8.3c1.5,0,2.9-0.3,4.2,0c-0.6-2.1-1.7-3.7-3.4-5.4c-2.7-2.7-5.9-3.6-9.7-3.6H70v60.8l9-0.6V29z"/>
	<polygon fill="#067089" points="196,61.9 208.7,72.3 217,65.5 217,41.3 208,32.3 208,70.1 187,52.9 187,81.9 196,79.8 	"/>
	<path fill="#067089" d="M135.9,24.1c4.2,0.1,7.5,0.6,10.1,1.5c-0.8-2.4-2-4.3-3.7-5.9c-3.2-3-7.9-4.6-15.4-4.7l-0.7,0.2l9,9
		L135.9,24.1z"/>
	<path fill="#067089" d="M232,69.6V95H126l-8.6-8.6c-7.3,5.8-15.7,8.6-25.3,8.6H9.6l9,9h82.5c9.6,0,18.1-2.8,25.3-8.6l8.6,8.6h106
		V66h-2.4L232,69.6z"/>
	<polygon fill="#067089" points="232,47 229.6,47 195.2,20 187,20 187,49.5 195.6,42.5 196,38.8 196,29 198.3,29 199,22.8 
		206.5,30.5 238.6,56 241,56 241,21 232,12 	"/>
	<path fill="#067089" d="M142.3,62c0-11.4-4-21-12.1-29c-1.5-1.5-3.1-2.9-4.8-4.1c5.2,7,7.9,15,7.9,24.2c0,11.4-4,21-12.1,29
		c-0.6,0.6-1.3,1.2-1.9,1.8l18.7-3.3C140.9,74.9,142.3,68.7,142.3,62z"/>
	<path fill="#067089" d="M276.4,75.7l25.6,3.2c0-0.1,0-0.2,0-0.2c0-2.1-0.7-3.9-2-5.6c-1.4-1.7-3-2.6-5.1-2.9l-27.5-3.4
		c-2.8-0.3-5.3-1.1-7.6-2.4c0.4,0.7,0.8,1.4,1.3,2C264.9,71.8,270,74.9,276.4,75.7z"/>
	<path fill="#067089" d="M259.3,80.6c-1.3-1.6-3.3-3.3-4.3-5v1.6c2,1.2,2.7,2.3,3.9,3.3L259.3,80.6z"/>
	<path fill="#067089" d="M288,35.7l1.9,0.2c0-0.5,0.1-1,0.2-1.5c0.4-2,1.2-2.9,2.4-4.2c1.2-1.3,2.7-1.2,4.5-1.2h20.6
		c3.8,0,8,0.8,12.8,3.7c3.4,2.1,6.3,4.5,9.9,8c1.4,1.5,2.7,2.6,3.7,4V24.1c5,0,7.9,1,11.4,3.1c-1.2-2.7-3.7-5.2-6.8-7.4
		c-4.4-3.1-8.6-4.7-13.6-4.7v20.6c-1-1.5-2.3-2.8-3.7-4.3c-3.6-3.4-6.7-5.6-10.1-7.7c-4.8-3-8.8-3.7-12.5-3.7H288
		c-1.8,0-3.3-0.1-4.5,1.2c-1.2,1.3-2,2.5-2.4,4.5c-0.1,0.6-0.2,1.1-0.2,1.7c0,2.2,0.7,4,2,5.7C284.3,34.7,286,35.5,288,35.7z"/>
	<path fill="#067089" d="M343.4,79.2l8.4-0.3c0.1-1.1,0.2-2.1,0.2-3.3c0-7.1-1.8-13.2-5.3-18.3c-2.2-3.1-4.8-5.4-7.7-7
		c2.7,4.7,4,10.1,4,16.3c0,5.3-1.5,9.9-4.4,13.9L343.4,79.2z"/>
	<path fill="#067089" d="M397,32.3v41.3c0,2.9,1,5.6,2.9,8.1l6.1-0.8V41.3c0-4.8,2.7-8.9,7.7-12.5c4.4-3.1,8.3-4.7,13.3-4.7V22
		h-22.9C400.1,25,397,28.1,397,32.3z"/>
	<path fill="#067089" d="M418,95h-83v-1.2l0.4,0l-5.4-5.2c-6.2,3.9-13.1,6.3-21.3,6.3H247l9,9h61.7c8.2,0,15.4-2.4,21.6-6.3l5.2,5.4
		l-0.4-0.3v1.2h83v-4.3l-9-9V95z"/>
	<path fill="#067089" d="M473.3,86.7c-0.5-1.2-1-2.4-1.5-3.8c-1.8-5.7-2.8-12.7-2.8-21c0-5.6,0.4-10.8,1.4-15.6
		c1.1-5.6,2.9-10,5.2-13.2c2.8-3.7,6.2-5.6,10.5-5.6c2.9,0,5.5,0.5,7.9,1.6c-0.5-0.9-1-1.8-1.6-2.6c-3.8-5.4-8.9-8-15.3-8
		c-4.3,0-7.8,1.9-10.5,5.6c-2.3,3.2-4.1,7.6-5.2,13.2c-1,4.8-1.4,10-1.4,15.6c0,8.3,1,15.3,2.8,21C465.1,80.8,468.6,85.1,473.3,86.7
		z"/>
	<path fill="#067089" d="M507,52.9V83h9V61.9l-5.9-5.9h2.9V24.1c3,0,4.6,0.5,6.5,1.6c-0.1-0.1,0.2-0.1,0.1-0.2
		c-2.4-3.2-4.7-5.6-6.6-7.1c-2.8-2.2-6-3.3-9-3.3v27.8c1,2.6,1.3,5.5,1.6,8.6L507,52.9z"/>
	<path fill="#067089" d="M540,83V51.1l-7-9.3V55c0,8.2,0.2,14.9-0.5,20.1c-0.1,0.9,0,2.3-0.2,3.2c0.4,1.5,1.3,2.7,2.2,4.7H540z"/>
	<path fill="#067089" d="M582.3,25c3.4,0,6.6,0.3,9.4,1.8c-1-1.8-2.2-3.3-3.8-4.9c-4-4-8.9-5.9-14.6-5.9H570l9,9H582.3z"/>
	<path fill="#067089" d="M624,12v4h-2.5c-5.7,0-11,1.6-15,5.6c-4,4-6.5,8.4-6.5,14.1v0.1c2,2.7,2,5.7,2,8.9v17.2l-2-2.4V95h-24.4
		l6.8,9H609V44.7c0-5.7,2.4-10.1,6.5-14.1c4-4,9.3-5.6,15-5.6h2.5v-4L624,12z"/>
	<polygon fill="#067089" points="593,51.2 568.6,22 567.2,22 593,52.9 	"/>
	<path fill="#067089" d="M556.2,91.2l-0.3,0.8H555v3h-48.2c-1.2,0-2.5-0.3-4-0.2c-4.7,0.3-9.4,0.7-13.4,1.3c-5.8,1-11.4,2.2-16.4,4
		v-5.3c-3,0.4-4.6,0.6-7.4,0.8c-2.8,0.2-5.8,0.2-9.4,0.2c-9.8,0-17.9-2.4-24.7-7.1c1.2,1.8,2.7,3.4,4.2,5
		c7.5,7.4,17.4,11.1,29.7,11.1c3.6,0,6.4-0.1,9.2-0.2c2.8-0.2,4.4-0.4,7.4-0.8v5.3c5-1.8,10.6-3.3,16.4-4.3c4-0.7,8.5-0.8,13.2-1.1
		c1.5-0.1,3,0.2,4.2,0.2H564v-3h0.9l0.3-0.6L556.2,91.2z"/>
</g>
<g>
	<path fill="none" stroke="#FFFFFF" stroke-miterlimit="10" d="M126.3,42.9c0,11.4-4,21.1-12.1,29.1c-8.1,8.1-17.8,12.1-29.1,12.1
		H2.6v-3.4c5.5,0,10.2-1.6,14.2-4.7c4.3-3.3,6.4-7.5,6.4-12.5V22.3c0-5-2.1-9.2-6.4-12.5C12.8,6.7,8,5.1,2.6,5.1V1.7h82.5
		c11.4,0,21.1,4,29.1,12.1C122.3,21.8,126.3,31.6,126.3,42.9z M85.1,63.5V22.3c0-3.8-1.3-7-4-9.7c-2.7-2.7-5.9-4.1-9.8-4.1h-6.9
		v68.8h6.9c3.8,0,7-1.4,9.7-4.1C83.7,70.5,85.1,67.3,85.1,63.5z"/>
	<path fill="none" stroke="#FFFFFF" stroke-miterlimit="10" d="M226,84.2H119.5v-3.4c7.7,0,13.2-1.6,16.4-4.7
		c2.8-2.7,4.2-6.9,4.2-12.5V22.3c0-5.5-1.5-9.7-4.5-12.5c-3.3-3.1-8.7-4.7-16.1-4.7V1.7H226V36h-3.4L188.2,8.5h-6.9v30.9L199,22.3h3
		v37.8h-3l-17.6-17.2v34.4h3.4l37.8-30.9h3.4V84.2z"/>
	<path fill="none" stroke="#FFFFFF" stroke-miterlimit="10" d="M336,56.7c0,8.2-3.6,14.9-10.7,20.2c-6.6,4.9-14.5,7.3-23.6,7.3
		h-61.9l-3-27.5h3c1.4,1.8,2.8,3.6,4.1,5.3c3.5,4.2,6.9,7.5,10.2,10c4.8,3.6,9.1,5.4,13.1,5.4h20.6c1.8,0,3.3-0.6,4.5-1.9
		c1.2-1.3,2-2.9,2.4-5c0.1-0.6,0.2-1.2,0.2-1.8c0-2.1-0.7-3.9-2-5.6c-1.4-1.7-3-2.6-5.1-2.9l-27.5-3.4c-6.4-0.8-11.5-3.9-15.3-9.4
		c-3.6-5.1-5.4-11.1-5.4-18.1c0-7.6,2.7-14,8.1-19.4c5.4-5.4,11.9-8.1,19.4-8.1h61.9v24.1h-3c0,0,0-3.1-1.3-4.4
		c-3.6-3.4-7.1-6.2-10.4-8.3c-4.8-3-9-4.5-12.8-4.5H281c-1.8,0-3.3,0.6-4.5,1.9c-1.2,1.3-2,2.9-2.4,5c-0.1,0.6-0.2,1.2-0.2,1.8
		c0,2.2,0.7,4.1,2,5.7c1.3,1.7,3,2.6,5.1,2.8l34.4,3.4c6.4,0.6,11.5,3.7,15.3,9.2C334.3,43.5,336,49.6,336,56.7z"/>
	<path fill="none" stroke="#FFFFFF" stroke-miterlimit="10" d="M411.7,84.2h-82.5v-3.4c4.4,0,8.7-1.6,13.1-4.7
		c5-3.6,7.5-7.7,7.5-12.5V22.3c0-4.8-2.5-9-7.4-12.5c-4.4-3.1-8.8-4.7-13.2-4.7V1.7h82.5v3.4c-4.4,0-8.7,1.6-13.1,4.7
		c-5,3.6-7.5,7.7-7.5,12.5v41.3c0,4.8,2.5,9,7.4,12.5c4.4,3.1,8.8,4.7,13.2,4.7V84.2z"/>
	<path fill="none" stroke="#FFFFFF" stroke-miterlimit="10" d="M501,84.2c-1.5,0-3.2,0.1-5.3,0.2c-4.7,0.3-9,0.8-13,1.5
		c-5.8,1-11.2,2.4-16.1,4.3h-3l3-5.3c-2.4,0.4-5,0.6-7.7,0.8c-2.8,0.2-5.9,0.2-9.5,0.2c-12.3,0-22.2-3.7-29.6-11.1
		c-7.7-7.7-11.6-18.3-11.6-31.8c0-13.9,3.5-24.5,10.4-31.9c6.9-7.4,17.2-11,30.8-11c2.8,0.1,6,0.3,9.8,0.5c3.8,0.2,10,0.4,18.6,0.7
		c8.6,0.3,15.2,0.4,19.7,0.4V36h-6.9c0-7.9-1.8-14.4-5.3-19.5c-3.8-5.4-8.9-8-15.3-8c-4.3,0-7.8,1.9-10.5,5.6
		c-2.3,3.2-4.1,7.6-5.2,13.2c-1,4.8-1.4,10-1.4,15.6c0,8.3,0.9,15.3,2.8,21c2.3,7.3,6,11.6,11,13l-3-34h3c3,0.6,5.4,1.1,7.2,1.3
		c1.8,0.2,4,0.3,6.5,0.3c4,0,7.3,0,9.9-0.1c2.5-0.1,7.7-1.5,7.7-1.5h3V84.2z"/>
	<path fill="none" stroke="#FFFFFF" stroke-miterlimit="10" d="M617.9,5.1h-3.4c-5.7,0-10.5,2-14.6,6c-4,4-6,8.9-6,14.6v58.4h-27.5
		l-41.2-55v34.4c0,5,2.1,9.2,6.4,12.5c4,3.1,8.8,4.7,14.2,4.7h3.4v3.4h-55v-3.4h3.4c6,0,10.6-2.4,13.9-7.3c2.7-4,4.6-9.7,5.6-17.3
		c0.7-5.3,1.1-12,1.1-20.1V22.3c-0.8-0.8-2.6-3-5.4-6.8c-2.4-3.2-4.5-5.6-6.5-7.1c-2.8-2.2-5.7-3.3-8.8-3.3h-3.4V1.7h58.4L587,42.9
		V25.7c0-5.7-2-10.5-6-14.6c-4-4-8.9-6-14.6-6h-3.4V1.7h55V5.1z"/>
	<path fill="none" stroke="#FFFFFF" stroke-miterlimit="10" d="M745.1,46.4h-3.4c0-2.1-2.4-6.3-7.1-12.9c-3.1-4.3-7.5-9.9-13.3-16.6
		c-4.7-5.5-7.1-8.3-7.2-8.3v48.1c0,6.7,2.3,12.4,7,17s10.4,7,17,7v3.4h-89.4v-3.4c6.7,0,12.4-2.3,17-7s7-10.4,7-17V8.5
		c-0.1,0-2.5,2.8-7.1,8.2c-5.7,6.8-10.2,12.3-13.3,16.6c-4.8,6.6-7.2,10.9-7.2,12.9H642V1.7h103.1V46.4z"/>
	<path fill="none" stroke="#FFFFFF" stroke-miterlimit="10" d="M844.8,84.2H738.2v-3.4c7.7,0,13.2-1.6,16.4-4.7
		c2.8-2.7,4.2-6.9,4.2-12.5V22.3c0-5.5-1.5-9.7-4.5-12.5c-3.3-3.1-8.7-4.7-16.1-4.7V1.7h106.6V36h-3.4L807,8.5h-6.9v30.9l17.6-17.2
		h3v37.8h-3l-17.6-17.2v34.4h3.4l37.8-30.9h3.4V84.2z"/>
	<path fill="none" stroke="#FFFFFF" stroke-miterlimit="10" d="M954.8,84.2H831v-3.4h3.4c4.2,0,7.9-1.1,11.1-3.4
		c2.8-2,5.4-5,7.6-8.8c1.7-2.9,3.5-6.8,5.4-11.8l20.6-55h34.4L941,63.5c1.8,4,4.2,7.8,7.1,11.6c3,3.7,5.2,5.6,6.6,5.6V84.2z
		 M895.8,63.5c-0.1-1.2-0.5-2.5-1.1-3.8c-0.1-0.2-0.7-1.2-1.8-3.1h-25.6c-0.6,1.1-1.1,2.2-1.4,3.2c-0.3,1.1-0.4,2.3-0.4,3.6
		c0,3.9,1.5,7.2,4.5,9.8c3,2.6,6.6,4,10.7,4c4,0,7.5-1.2,10.6-3.6s4.6-5.4,4.6-9C895.9,64.1,895.8,63.8,895.8,63.5z M890.2,49.8
		l-11-24.1l-9.3,24.1H890.2z"/>
	<path fill="none" stroke="#FFFFFF" stroke-miterlimit="10" d="M1085.4,84.2h-75.6v-3.4c4.7,0,8.7-1.7,12.1-5s5.1-7.4,5.1-12.2V22.3
		l-24.1,61.9h-10.3l-24.1-55v34.4c0,4.8,1.7,8.8,5,12.2s7.4,5,12.2,5v3.4H941v-3.4c5.5,0,10.2-1.6,14.2-4.7
		c4.3-3.3,6.4-7.5,6.4-12.5V22.3c0-5-2.1-9.2-6.4-12.5c-4-3.1-8.8-4.7-14.2-4.7V1.7h55l17.2,34.4l13.7-34.4h58.5v3.4
		c-5.5,0-10.2,1.6-14.2,4.7c-4.3,3.3-6.4,7.5-6.4,12.5v41.3c0,5,2.1,9.2,6.4,12.5c4,3.1,8.8,4.7,14.2,4.7V84.2z"/>
</g>
<g>
	<path fill="#FFFFFF" d="M126.3,42.9c0,11.4-4,21.1-12.1,29.1c-8.1,8.1-17.8,12.1-29.1,12.1H2.6v-3.4c5.5,0,10.2-1.6,14.2-4.7
		c4.3-3.3,6.4-7.5,6.4-12.5V22.3c0-5-2.1-9.2-6.4-12.5C12.8,6.7,8,5.1,2.6,5.1V1.7h82.5c11.4,0,21.1,4,29.1,12.1
		C122.3,21.8,126.3,31.6,126.3,42.9z M85.1,63.5V22.3c0-3.8-1.3-7-4-9.7c-2.7-2.7-5.9-4.1-9.8-4.1h-6.9v68.8h6.9
		c3.8,0,7-1.4,9.7-4.1C83.7,70.5,85.1,67.3,85.1,63.5z"/>
	<path fill="#FFFFFF" d="M226,84.2H119.5v-3.4c7.7,0,13.2-1.6,16.4-4.7c2.8-2.7,4.2-6.9,4.2-12.5V22.3c0-5.5-1.5-9.7-4.5-12.5
		c-3.3-3.1-8.7-4.7-16.1-4.7V1.7H226V36h-3.4L188.2,8.5h-6.9v30.9L199,22.3h3v37.8h-3l-17.6-17.2v34.4h3.4l37.8-30.9h3.4V84.2z"/>
	<path fill="#FFFFFF" d="M336,56.7c0,8.2-3.6,14.9-10.7,20.2c-6.6,4.9-14.5,7.3-23.6,7.3h-61.9l-3-27.5h3c1.4,1.8,2.8,3.6,4.1,5.3
		c3.5,4.2,6.9,7.5,10.2,10c4.8,3.6,9.1,5.4,13.1,5.4h20.6c1.8,0,3.3-0.6,4.5-1.9c1.2-1.3,2-2.9,2.4-5c0.1-0.6,0.2-1.2,0.2-1.8
		c0-2.1-0.7-3.9-2-5.6c-1.4-1.7-3-2.6-5.1-2.9l-27.5-3.4c-6.4-0.8-11.5-3.9-15.3-9.4c-3.6-5.1-5.4-11.1-5.4-18.1
		c0-7.6,2.7-14,8.1-19.4c5.4-5.4,11.9-8.1,19.4-8.1h61.9v24.1h-3c0,0,0-3.1-1.3-4.4c-3.6-3.4-7.1-6.2-10.4-8.3
		c-4.8-3-9-4.5-12.8-4.5H281c-1.8,0-3.3,0.6-4.5,1.9c-1.2,1.3-2,2.9-2.4,5c-0.1,0.6-0.2,1.2-0.2,1.8c0,2.2,0.7,4.1,2,5.7
		c1.3,1.7,3,2.6,5.1,2.8l34.4,3.4c6.4,0.6,11.5,3.7,15.3,9.2C334.3,43.5,336,49.6,336,56.7z"/>
	<path fill="#FFFFFF" d="M411.7,84.2h-82.5v-3.4c4.4,0,8.7-1.6,13.1-4.7c5-3.6,7.5-7.7,7.5-12.5V22.3c0-4.8-2.5-9-7.4-12.5
		c-4.4-3.1-8.8-4.7-13.2-4.7V1.7h82.5v3.4c-4.4,0-8.7,1.6-13.1,4.7c-5,3.6-7.5,7.7-7.5,12.5v41.3c0,4.8,2.5,9,7.4,12.5
		c4.4,3.1,8.8,4.7,13.2,4.7V84.2z"/>
	<path fill="#FFFFFF" d="M501,84.2c-1.5,0-3.2,0.1-5.3,0.2c-4.7,0.3-9,0.8-13,1.5c-5.8,1-11.2,2.4-16.1,4.3h-3l3-5.3
		c-2.4,0.4-5,0.6-7.7,0.8c-2.8,0.2-5.9,0.2-9.5,0.2c-12.3,0-22.2-3.7-29.6-11.1c-7.7-7.7-11.6-18.3-11.6-31.8
		c0-13.9,3.5-24.5,10.4-31.9c6.9-7.4,17.2-11,30.8-11c2.8,0.1,6,0.3,9.8,0.5c3.8,0.2,10,0.4,18.6,0.7c8.6,0.3,15.2,0.4,19.7,0.4V36
		h-6.9c0-7.9-1.8-14.4-5.3-19.5c-3.8-5.4-8.9-8-15.3-8c-4.3,0-7.8,1.9-10.5,5.6c-2.3,3.2-4.1,7.6-5.2,13.2c-1,4.8-1.4,10-1.4,15.6
		c0,8.3,0.9,15.3,2.8,21c2.3,7.3,6,11.6,11,13l-3-34h3c3,0.6,5.4,1.1,7.2,1.3c1.8,0.2,4,0.3,6.5,0.3c4,0,7.3,0,9.9-0.1
		c2.5-0.1,7.7-1.5,7.7-1.5h3V84.2z"/>
	<path fill="#FFFFFF" d="M617.9,5.1h-3.4c-5.7,0-10.5,2-14.6,6c-4,4-6,8.9-6,14.6v58.4h-27.5l-41.2-55v34.4c0,5,2.1,9.2,6.4,12.5
		c4,3.1,8.8,4.7,14.2,4.7h3.4v3.4h-55v-3.4h3.4c6,0,10.6-2.4,13.9-7.3c2.7-4,4.6-9.7,5.6-17.3c0.7-5.3,1.1-12,1.1-20.1V22.3
		c-0.8-0.8-2.6-3-5.4-6.8c-2.4-3.2-4.5-5.6-6.5-7.1c-2.8-2.2-5.7-3.3-8.8-3.3h-3.4V1.7h58.4L587,42.9V25.7c0-5.7-2-10.5-6-14.6
		c-4-4-8.9-6-14.6-6h-3.4V1.7h55V5.1z"/>
	<path fill="#FFFFFF" d="M745.1,46.4h-3.4c0-2.1-2.4-6.3-7.1-12.9c-3.1-4.3-7.5-9.9-13.3-16.6c-4.7-5.5-7.1-8.3-7.2-8.3v48.1
		c0,6.7,2.3,12.4,7,17s10.4,7,17,7v3.4h-89.4v-3.4c6.7,0,12.4-2.3,17-7s7-10.4,7-17V8.5c-0.1,0-2.5,2.8-7.1,8.2
		c-5.7,6.8-10.2,12.3-13.3,16.6c-4.8,6.6-7.2,10.9-7.2,12.9H642V1.7h103.1V46.4z"/>
	<path fill="#FFFFFF" d="M844.8,84.2H738.2v-3.4c7.7,0,13.2-1.6,16.4-4.7c2.8-2.7,4.2-6.9,4.2-12.5V22.3c0-5.5-1.5-9.7-4.5-12.5
		c-3.3-3.1-8.7-4.7-16.1-4.7V1.7h106.6V36h-3.4L807,8.5h-6.9v30.9l17.6-17.2h3v37.8h-3l-17.6-17.2v34.4h3.4l37.8-30.9h3.4V84.2z"/>
	<path fill="#FFFFFF" d="M954.8,84.2H831v-3.4h3.4c4.2,0,7.9-1.1,11.1-3.4c2.8-2,5.4-5,7.6-8.8c1.7-2.9,3.5-6.8,5.4-11.8l20.6-55
		h34.4L941,63.5c1.8,4,4.2,7.8,7.1,11.6c3,3.7,5.2,5.6,6.6,5.6V84.2z M895.8,63.5c-0.1-1.2-0.5-2.5-1.1-3.8
		c-0.1-0.2-0.7-1.2-1.8-3.1h-25.6c-0.6,1.1-1.1,2.2-1.4,3.2c-0.3,1.1-0.4,2.3-0.4,3.6c0,3.9,1.5,7.2,4.5,9.8c3,2.6,6.6,4,10.7,4
		c4,0,7.5-1.2,10.6-3.6s4.6-5.4,4.6-9C895.9,64.1,895.8,63.8,895.8,63.5z M890.2,49.8l-11-24.1l-9.3,24.1H890.2z"/>
	<path fill="#FFFFFF" d="M1085.4,84.2h-75.6v-3.4c4.7,0,8.7-1.7,12.1-5s5.1-7.4,5.1-12.2V22.3l-24.1,61.9h-10.3l-24.1-55v34.4
		c0,4.8,1.7,8.8,5,12.2s7.4,5,12.2,5v3.4H941v-3.4c5.5,0,10.2-1.6,14.2-4.7c4.3-3.3,6.4-7.5,6.4-12.5V22.3c0-5-2.1-9.2-6.4-12.5
		c-4-3.1-8.8-4.7-14.2-4.7V1.7h55l17.2,34.4l13.7-34.4h58.5v3.4c-5.5,0-10.2,1.6-14.2,4.7c-4.3,3.3-6.4,7.5-6.4,12.5v41.3
		c0,5,2.1,9.2,6.4,12.5c4,3.1,8.8,4.7,14.2,4.7V84.2z"/>
</g>
<g>
	<path fill="#F1F1F1" d="M123.3,42.9c0,11.4-4,21.1-12.1,29.1c-8.1,8.1-17.8,12.1-29.1,12.1H-0.4v-3.4c5.5,0,10.2-1.6,14.2-4.7
		c4.3-3.3,6.4-7.5,6.4-12.5V22.3c0-5-2.1-9.2-6.4-12.5C9.8,6.7,5,5.1-0.4,5.1V1.7h82.5c11.4,0,21.1,4,29.1,12.1
		C119.3,21.8,123.3,31.6,123.3,42.9z M82.1,63.5V22.3c0-3.8-1.3-7-4-9.7c-2.7-2.7-5.9-4.1-9.8-4.1h-6.9v68.8h6.9
		c3.8,0,7-1.4,9.7-4.1C80.7,70.5,82.1,67.3,82.1,63.5z"/>
	<path fill="#F1F1F1" d="M223,84.2H116.5v-3.4c7.7,0,13.2-1.6,16.4-4.7c2.8-2.7,4.2-6.9,4.2-12.5V22.3c0-5.5-1.5-9.7-4.5-12.5
		c-3.3-3.1-8.7-4.7-16.1-4.7V1.7H223V36h-3.4L185.2,8.5h-6.9v30.9L199,22.3v37.8l-20.6-17.2v34.4h3.4l37.8-30.9h3.4V84.2z"/>
	<path fill="#F1F1F1" d="M333,56.7c0,8.2-3.6,14.9-10.7,20.2c-6.6,4.9-14.5,7.3-23.6,7.3h-61.9V56.7c1.4,1.8,2.8,3.6,4.1,5.3
		c3.5,4.2,6.9,7.5,10.2,10c4.8,3.6,9.1,5.4,13.1,5.4h20.6c1.8,0,3.3-0.6,4.5-1.9c1.2-1.3,2-2.9,2.4-5c0.1-0.6,0.2-1.2,0.2-1.8
		c0-2.1-0.7-3.9-2-5.6c-1.4-1.7-3-2.6-5.1-2.9l-27.5-3.4c-6.4-0.8-11.5-3.9-15.3-9.4c-3.6-5.1-5.4-11.1-5.4-18.1
		c0-7.6,2.7-14,8.1-19.4c5.4-5.4,11.9-8.1,19.4-8.1h61.9v24.1c-1.4-1.5-2.8-2.9-4.3-4.4c-3.6-3.4-7.1-6.2-10.4-8.3
		c-4.8-3-9-4.5-12.8-4.5H278c-1.8,0-3.3,0.6-4.5,1.9c-1.2,1.3-2,2.9-2.4,5c-0.1,0.6-0.2,1.2-0.2,1.8c0,2.2,0.7,4.1,2,5.7
		c1.3,1.7,3,2.6,5.1,2.8l34.4,3.4c6.4,0.6,11.5,3.7,15.3,9.2C331.3,43.5,333,49.6,333,56.7z"/>
	<path fill="#F1F1F1" d="M408.7,84.2h-82.5v-3.4c4.4,0,8.7-1.6,13.1-4.7c5-3.6,7.5-7.7,7.5-12.5V22.3c0-4.8-2.5-9-7.4-12.5
		c-4.4-3.1-8.8-4.7-13.2-4.7V1.7h82.5v3.4c-4.4,0-8.7,1.6-13.1,4.7c-5,3.6-7.5,7.7-7.5,12.5v41.3c0,4.8,2.5,9,7.4,12.5
		c4.4,3.1,8.8,4.7,13.2,4.7V84.2z"/>
	<path fill="#F1F1F1" d="M498,84.2c-1.5,0-3.2,0.1-5.3,0.2c-4.7,0.3-9,0.8-13,1.5c-5.8,1-11.2,2.4-16.1,4.3v-5.3
		c-2.4,0.4-5,0.6-7.7,0.8c-2.8,0.2-5.9,0.2-9.5,0.2c-12.3,0-22.2-3.7-29.6-11.1c-7.7-7.7-11.6-18.3-11.6-31.8
		c0-13.9,3.5-24.5,10.4-31.9c6.9-7.4,17.2-11,30.8-11c2.8,0.1,6,0.3,9.8,0.5c3.8,0.2,10,0.4,18.6,0.7c8.6,0.3,15.2,0.4,19.7,0.4V36
		h-6.9c0-7.9-1.8-14.4-5.3-19.5c-3.8-5.4-8.9-8-15.3-8c-4.3,0-7.8,1.9-10.5,5.6c-2.3,3.2-4.1,7.6-5.2,13.2c-1,4.8-1.4,10-1.4,15.6
		c0,8.3,0.9,15.3,2.8,21c2.3,7.3,6,11.6,11,13v-34c3,0.6,5.4,1.1,7.2,1.3c1.8,0.2,4,0.3,6.5,0.3c4,0,7.3,0,9.9-0.1
		c2.6-0.1,6.1-0.6,10.7-1.5V84.2z"/>
	<path fill="#F1F1F1" d="M614.9,5.1h-3.4c-5.7,0-10.5,2-14.6,6c-4,4-6,8.9-6,14.6v58.4h-27.5l-41.2-55v34.4c0,5,2.1,9.2,6.4,12.5
		c4,3.1,8.8,4.7,14.2,4.7h3.4v3.4h-55v-3.4h3.4c6,0,10.6-2.4,13.9-7.3c2.7-4,4.6-9.7,5.6-17.3c0.7-5.3,1.1-12,1.1-20.1V22.3
		c-0.8-0.8-2.6-3-5.4-6.8c-2.4-3.2-4.5-5.6-6.5-7.1c-2.8-2.2-5.7-3.3-8.8-3.3h-3.4V1.7h58.4L584,42.9V25.7c0-5.7-2-10.5-6-14.6
		c-4-4-8.9-6-14.6-6h-3.4V1.7h55V5.1z"/>
	<path fill="#F1F1F1" d="M742.1,46.4h-3.4c0-2.1-2.4-6.3-7.1-12.9c-3.1-4.3-7.5-9.9-13.3-16.6c-4.7-5.5-7.1-8.3-7.2-8.3v48.1
		c0,6.7,2.3,12.4,7,17s10.4,7,17,7v3.4h-89.4v-3.4c6.7,0,12.4-2.3,17-7s7-10.4,7-17V8.5c-0.1,0-2.5,2.8-7.1,8.2
		c-5.7,6.8-10.2,12.3-13.3,16.6c-4.8,6.6-7.2,10.9-7.2,12.9H639V1.7h103.1V46.4z"/>
	<path fill="#F1F1F1" d="M841.8,84.2H735.2v-3.4c7.7,0,13.2-1.6,16.4-4.7c2.8-2.7,4.2-6.9,4.2-12.5V22.3c0-5.5-1.5-9.7-4.5-12.5
		c-3.3-3.1-8.7-4.7-16.1-4.7V1.7h106.6V36h-3.4L804,8.5h-6.9v30.9l20.6-17.2v37.8l-20.6-17.2v34.4h3.4l37.8-30.9h3.4V84.2z"/>
	<path fill="#F1F1F1" d="M951.8,84.2H828v-3.4h3.4c4.2,0,7.9-1.1,11.1-3.4c2.8-2,5.4-5,7.6-8.8c1.7-2.9,3.5-6.8,5.4-11.8l20.6-55
		h34.4L938,63.5c1.8,4,4.2,7.8,7.1,11.6c3,3.7,5.2,5.6,6.6,5.6V84.2z M892.8,63.5c-0.1-1.2-0.5-2.5-1.1-3.8
		c-0.1-0.2-0.7-1.2-1.8-3.1h-25.6c-0.6,1.1-1.1,2.2-1.4,3.2c-0.3,1.1-0.4,2.3-0.4,3.6c0,3.9,1.5,7.2,4.5,9.8c3,2.6,6.6,4,10.7,4
		c4,0,7.5-1.2,10.6-3.6s4.6-5.4,4.6-9C892.9,64.1,892.8,63.8,892.8,63.5z M887.2,49.8l-11-24.1l-9.3,24.1H887.2z"/>
	<path fill="#F1F1F1" d="M1082.4,84.2h-75.6v-3.4c4.7,0,8.7-1.7,12.1-5s5.1-7.4,5.1-12.2V22.3l-24.1,61.9h-10.3l-24.1-55v34.4
		c0,4.8,1.7,8.8,5,12.2s7.4,5,12.2,5v3.4H938v-3.4c5.5,0,10.2-1.6,14.2-4.7c4.3-3.3,6.4-7.5,6.4-12.5V22.3c0-5-2.1-9.2-6.4-12.5
		c-4-3.1-8.8-4.7-14.2-4.7V1.7h55l17.2,34.4l13.7-34.4h58.5v3.4c-5.5,0-10.2,1.6-14.2,4.7c-4.3,3.3-6.4,7.5-6.4,12.5v41.3
		c0,5,2.1,9.2,6.4,12.5c4,3.1,8.8,4.7,14.2,4.7V84.2z"/>
</g>
</svg>
